<?xml version="1.0" standalone="no"?>
<!DOCTYPE svg PUBLIC "-//W3C//DTD SVG 20010904//EN"
 "http://www.w3.org/TR/2001/REC-SVG-20010904/DTD/svg10.dtd">
<svg version="1.0" xmlns="http://www.w3.org/2000/svg"
 width="1024.000000pt" height="1024.000000pt" viewBox="0 0 1024.000000 1024.000000"
 preserveAspectRatio="xMidYMid meet">

<g transform="translate(0.000000,1024.000000) scale(0.100000,-0.100000)"
fill="#000000" stroke="none">
<path d="M2325 9553 c-867 -116 -1555 -735 -1759 -1583 -54 -227 -51 -39 -51
-2830 0 -2437 1 -2570 18 -2673 148 -879 747 -1532 1587 -1731 274 -65 60 -61
2985 -61 2523 0 2656 1 2778 18 633 91 1133 393 1469 887 176 259 295 563 348
885 20 117 20 181 20 2664 0 2249 -2 2556 -16 2650 -86 593 -412 1114 -904
1445 -257 173 -610 299 -945 336 -58 6 -1041 9 -2755 9 -2285 -1 -2681 -3
-2775 -16z m5382 -603 c248 -17 449 -75 644 -185 386 -218 640 -575 725 -1015
18 -90 19 -215 22 -2520 2 -1708 0 -2467 -8 -2567 -28 -362 -163 -667 -412
-929 -237 -249 -596 -413 -938 -429 -52 -3 -321 -7 -597 -10 l-503 -5 0 740 0
740 -1525 0 -1525 0 0 -739 0 -740 -557 5 c-609 5 -669 10 -857 66 -284 84
-563 278 -742 518 -123 165 -231 411 -271 621 -17 89 -18 228 -18 2639 l0
2545 23 105 c45 205 112 365 221 530 75 114 271 310 381 383 216 141 452 224
707 246 131 12 5060 13 5230 1z"/>
<path d="M4960 8434 c-14 -2 -67 -14 -119 -25 -492 -109 -874 -506 -966 -1004
-26 -135 -16 -394 19 -529 188 -719 926 -1118 1632 -881 566 190 929 784 840
1375 -75 494 -448 906 -934 1032 -102 26 -138 30 -282 33 -91 2 -176 2 -190
-1z"/>
<path d="M3605 5529 c-364 -46 -733 -313 -884 -640 -17 -35 -33 -77 -37 -92
-6 -27 -5 -28 22 -21 52 14 236 8 307 -9 259 -63 474 -256 553 -497 16 -48 19
-106 24 -478 l5 -423 1517 -2 1516 -2 6 29 c3 16 6 196 6 401 0 370 0 373 26
461 34 118 72 186 151 273 139 153 322 239 546 257 39 4 99 1 131 -5 33 -6 61
-9 63 -7 10 10 -66 168 -118 246 -179 268 -496 467 -812 509 -97 13 -2918 13
-3022 0z"/>
<path d="M2517 4266 c-66 -33 -93 -60 -128 -131 l-30 -61 -1 -1036 -1 -1037
27 -55 c29 -60 74 -104 138 -137 38 -19 56 -21 216 -20 148 1 182 5 218 20 61
27 118 89 143 156 l21 57 -2 1031 c-3 1026 -3 1032 -24 1077 -27 57 -86 117
-138 141 -35 16 -67 19 -216 18 -164 0 -178 -1 -223 -23z"/>
<path d="M7283 4271 c-49 -23 -113 -86 -139 -139 -18 -35 -19 -86 -22 -1075
-1 -697 1 -1052 8 -1078 13 -49 64 -116 115 -150 59 -41 124 -51 284 -45 124
5 146 8 189 30 64 33 109 79 138 141 l24 50 0 1035 c0 1168 6 1070 -80 1164
-72 78 -99 86 -301 86 -149 0 -180 -3 -216 -19z"/>
<path d="M1831 3666 c-48 -17 -108 -71 -134 -119 -22 -41 -22 -50 -25 -451 -3
-473 -3 -474 77 -550 111 -103 269 -94 369 20 21 23 44 60 50 82 8 27 12 161
12 438 0 398 0 399 -24 449 -46 99 -118 145 -226 144 -36 0 -80 -6 -99 -13z"/>
<path d="M8211 3666 c-48 -17 -108 -71 -134 -119 -22 -42 -22 -46 -22 -467 0
-417 0 -426 22 -466 54 -100 166 -156 271 -135 87 17 161 73 192 145 17 37 19
82 21 451 3 395 3 412 -17 455 -23 51 -89 115 -140 136 -40 17 -146 17 -193 0z"/>
</g>
</svg>
