<?xml version="1.0" standalone="no"?>
<!DOCTYPE svg PUBLIC "-//W3C//DTD SVG 20010904//EN"
 "http://www.w3.org/TR/2001/REC-SVG-20010904/DTD/svg10.dtd">
<svg version="1.0" xmlns="http://www.w3.org/2000/svg"
 width="1024.000000pt" height="1024.000000pt" viewBox="0 0 1024.000000 1024.000000"
 preserveAspectRatio="xMidYMid meet">

<g transform="translate(0.000000,1024.000000) scale(0.100000,-0.100000)"
fill="#000000" stroke="none">
<path d="M4945 7932 c-101 -26 -170 -67 -251 -148 -318 -318 -169 -860 266
-970 48 -12 91 -15 165 -11 227 12 385 117 493 329 115 226 63 494 -129 673
-105 97 -202 134 -364 141 -84 3 -126 0 -180 -14z"/>
<path d="M2822 7581 c-53 -14 -109 -57 -139 -108 l-28 -48 -3 -780 c-2 -518 1
-797 8 -830 26 -125 159 -201 281 -160 72 23 118 61 145 120 l24 50 0 790 c0
774 -1 791 -21 835 -25 55 -53 86 -100 110 -43 23 -121 32 -167 21z"/>
<path d="M7259 7577 c-62 -18 -104 -50 -136 -105 l-28 -47 0 -817 0 -816 30
-43 c35 -50 82 -84 137 -101 77 -23 197 25 248 100 l25 36 0 832 0 832 -30 43
c-53 75 -155 111 -246 86z"/>
<path d="M2200 7259 c-50 -16 -87 -45 -115 -93 -24 -42 -25 -48 -25 -238 l0
-196 -117 -4 c-133 -4 -172 -18 -199 -70 -11 -22 -15 -48 -12 -86 4 -48 10
-60 41 -89 l37 -33 125 0 125 0 0 -200 c0 -179 2 -205 19 -239 84 -163 315
-155 392 14 17 37 19 77 19 561 l0 520 -26 52 c-33 67 -89 102 -171 108 -32 2
-74 -1 -93 -7z"/>
<path d="M7836 7255 c-47 -16 -91 -57 -117 -107 -18 -35 -19 -65 -19 -561 l0
-523 26 -53 c61 -123 215 -153 330 -66 67 51 74 79 74 305 l0 200 110 0 c91 0
118 4 150 20 48 24 70 64 70 124 0 36 -6 52 -31 80 -39 45 -79 56 -202 56
l-97 0 0 196 1 196 -28 47 c-52 85 -167 122 -267 86z"/>
<path d="M3458 6723 l-208 -3 0 -228 c1 -162 5 -237 14 -262 43 -113 331 -792
351 -826 61 -104 196 -173 314 -161 87 9 165 42 214 90 38 39 104 144 169 272
42 84 129 239 138 248 4 5 7 -758 6 -1695 l-1 -1703 31 -55 c76 -135 245 -168
369 -74 25 19 55 54 68 77 l22 42 5 960 c6 1089 -1 1008 87 1047 71 31 140 12
180 -49 17 -25 18 -92 23 -988 l5 -960 22 -40 c48 -90 127 -139 223 -139 105
0 192 52 236 142 18 35 19 106 24 1732 l5 1695 94 -180 c115 -219 161 -295
207 -334 79 -70 194 -102 292 -82 168 33 216 92 341 411 21 52 45 110 54 127
10 18 29 65 43 105 15 40 33 82 40 93 8 12 22 46 33 76 10 29 35 88 55 129
l36 74 0 228 0 228 -420 0 -419 0 -35 -31 c-48 -42 -58 -105 -27 -164 37 -70
54 -75 255 -75 97 0 176 -2 176 -5 0 -3 -13 -31 -29 -63 -16 -31 -67 -142
-114 -247 -48 -104 -97 -212 -110 -240 l-24 -50 -33 65 c-46 92 -206 385 -243
445 -43 70 -64 93 -122 130 -105 68 -107 68 -655 73 -343 2 -519 0 -575 -8
-96 -14 -192 -57 -243 -109 -38 -38 -149 -228 -269 -458 -62 -121 -83 -152
-83 -122 0 6 -24 63 -54 128 -30 64 -90 194 -134 289 l-80 172 166 0 c139 0
173 3 201 18 96 48 105 172 18 236 -26 20 -42 21 -230 22 -111 0 -295 -1 -409
-3z"/>
</g>
</svg>
