<?xml version="1.0" standalone="no"?>
<!DOCTYPE svg PUBLIC "-//W3C//DTD SVG 20010904//EN"
 "http://www.w3.org/TR/2001/REC-SVG-20010904/DTD/svg10.dtd">
<svg version="1.0" xmlns="http://www.w3.org/2000/svg"
 width="1024.000000pt" height="1024.000000pt" viewBox="0 0 1024.000000 1024.000000"
 preserveAspectRatio="xMidYMid meet">

<g transform="translate(0.000000,1024.000000) scale(0.100000,-0.100000)"
fill="#000000" stroke="none">
<path d="M0 5120 l0 -5120 5120 0 5120 0 0 5120 0 5120 -5120 0 -5120 0 0
-5120z m4880 3560 c0 -5 18 -10 40 -10 22 0 40 5 40 10 0 6 18 10 40 10 22 0
40 -4 40 -10 0 -6 33 -10 80 -10 l80 0 0 -30 c0 -28 2 -30 40 -30 38 0 40 2
40 30 0 28 2 30 40 30 29 0 40 -4 40 -15 0 -11 11 -15 40 -15 29 0 40 4 40 15
0 11 11 15 40 15 29 0 40 -4 40 -15 0 -11 11 -15 40 -15 29 0 40 4 40 15 0 11
11 15 40 15 29 0 40 -4 40 -15 0 -12 16 -15 80 -15 64 0 80 -3 80 -15 0 -12
20 -15 120 -15 100 0 120 3 120 15 0 11 11 15 40 15 l40 0 0 -40 0 -40 80 0
80 0 0 -40 0 -40 80 0 c64 0 80 3 80 15 0 11 11 15 40 15 l40 0 0 -55 0 -55
40 0 c29 0 40 4 40 15 0 12 16 15 80 15 64 0 80 -3 80 -15 0 -11 11 -15 40
-15 36 0 40 -2 40 -25 0 -22 4 -25 40 -25 l40 0 0 -55 0 -55 40 0 40 0 0 -40
0 -40 40 0 c29 0 40 4 40 15 0 11 11 15 40 15 l40 0 0 -55 0 -55 40 0 c29 0
40 4 40 15 0 11 11 15 40 15 l40 0 0 -55 0 -55 40 0 40 0 0 -40 0 -40 40 0 40
0 0 -40 0 -40 80 0 c79 0 80 0 80 -25 0 -22 4 -25 40 -25 29 0 40 -4 40 -15 0
-8 5 -15 10 -15 6 0 10 -18 10 -40 0 -29 4 -40 15 -40 11 0 15 -11 15 -40 0
-36 3 -40 25 -40 23 0 25 -4 25 -40 0 -38 2 -40 30 -40 28 0 30 -2 30 -40 l0
-40 40 0 40 0 0 -40 0 -40 40 0 40 0 0 -40 c0 -36 3 -40 25 -40 23 0 25 -4 25
-40 l0 -40 55 0 55 0 0 -40 0 -40 50 0 50 0 0 -40 c0 -38 2 -40 30 -40 l30 0
0 -80 0 -80 50 0 50 0 0 -80 0 -80 40 0 40 0 0 -40 c0 -38 2 -40 30 -40 28 0
30 -2 30 -40 0 -22 5 -40 10 -40 6 0 10 -33 10 -80 l0 -80 30 0 30 0 0 -80 c0
-47 4 -80 10 -80 6 0 10 -18 10 -40 0 -38 2 -40 30 -40 28 0 30 -2 30 -40 0
-22 5 -40 10 -40 6 0 10 -18 10 -40 0 -22 -4 -40 -10 -40 -5 0 -10 -18 -10
-40 0 -22 5 -40 10 -40 6 0 10 -18 10 -40 0 -36 -2 -40 -25 -40 -22 0 -25 -4
-25 -40 0 -43 0 -43 68 -40 l42 2 0 -41 0 -41 -40 0 -40 0 0 -40 c0 -36 3 -40
25 -40 25 0 25 -1 25 -80 0 -79 0 -80 25 -80 23 0 25 -4 25 -40 0 -22 -4 -40
-10 -40 -5 0 -10 -18 -10 -40 l0 -40 50 0 50 0 0 -80 0 -80 -62 -1 c-35 0 -57
-3 -50 -6 8 -3 12 -29 12 -79 0 -59 -3 -74 -15 -74 -12 0 -15 -16 -15 -80 l0
-80 55 0 55 0 0 -80 0 -80 -40 0 -40 0 0 -40 c0 -22 5 -40 10 -40 6 0 10 -18
10 -40 l0 -40 -50 0 -50 0 0 -80 0 -80 -30 0 -30 0 0 -80 c0 -47 -4 -80 -10
-80 -6 0 -10 -33 -10 -80 l0 -80 -30 0 c-28 0 -30 -2 -30 -40 0 -22 -4 -40
-10 -40 -5 0 -10 -18 -10 -40 0 -38 -2 -40 -30 -40 l-30 0 0 -120 0 -120 -50
0 -50 0 0 -40 0 -40 -80 0 -80 0 -2 -42 -1 -43 -4 43 c-3 34 -8 42 -24 42 -16
0 -19 -7 -19 -40 0 -28 -4 -40 -14 -40 -10 0 -16 -14 -19 -42 -4 -49 -10 325
-11 699 0 138 -3 249 -6 246 -3 -2 -7 -300 -10 -661 l-5 -657 -32 -69 c-18
-37 -31 -72 -28 -76 2 -4 -2 -16 -11 -26 -14 -18 -14 -17 -3 5 6 14 -13 -2
-44 -35 -45 -48 -53 -62 -44 -74 10 -13 10 -13 -5 -1 -15 11 -24 10 -61 -12
-82 -48 -217 -69 -308 -48 l-36 8 -17 -71 c-10 -39 -19 -79 -19 -88 -1 -9 -5
-14 -9 -12 -4 3 -8 1 -8 -4 0 -5 -15 -32 -34 -60 -19 -27 -32 -53 -28 -58 4
-4 2 -4 -4 -1 -6 4 -22 -5 -35 -19 -37 -40 -136 -94 -203 -111 -45 -11 -84
-14 -156 -9 -52 4 -107 7 -122 8 -15 0 -25 5 -22 9 3 5 -2 9 -11 9 -8 0 -32
10 -53 23 -20 13 -46 21 -57 19 -12 -2 -16 0 -9 5 8 5 5 13 -11 26 -13 9 -26
13 -30 8 -3 -5 -1 -13 5 -16 8 -5 7 -12 -2 -23 -11 -15 -11 -15 4 -4 11 9 18
10 23 2 4 -6 16 -10 28 -8 16 2 21 -2 19 -14 -2 -12 4 -18 18 -18 11 0 20 -4
20 -9 0 -10 15 -16 70 -26 26 -5 31 -3 20 4 -18 13 -3 13 25 1 24 -10 19 -11
-75 -15 -33 -1 -64 -3 -70 -4 -5 0 -10 -12 -10 -26 0 -22 -4 -25 -39 -25 -22
0 -41 5 -44 13 -3 8 -14 3 -34 -15 -23 -22 -39 -28 -76 -28 -35 0 -47 -4 -47
-15 0 -12 -20 -15 -120 -15 -105 0 -120 -2 -120 -16 0 -16 -27 -17 -317 -12
-218 4 -318 9 -321 17 -5 16 -159 15 -165 -1 -5 -17 -1109 -16 -1115 1 -5 15
-79 14 -84 -1 -6 -16 -230 -16 -236 0 -3 9 -77 12 -283 12 -241 0 -279 2 -279
15 0 11 -12 15 -50 15 l-50 0 0 35 c0 28 -4 35 -20 35 -15 0 -20 6 -19 28 l0
27 10 -25 c10 -23 11 -24 23 -8 7 10 16 15 19 11 4 -3 7 -1 7 5 0 7 -3 12 -7
12 -5 0 -16 12 -26 25 -17 24 -17 25 0 23 42 -3 74 2 68 13 -4 6 -13 8 -21 5
-25 -9 -24 11 1 24 14 7 25 18 25 24 0 5 10 21 23 35 l22 25 -32 -25 c-18 -13
-32 -30 -32 -36 -1 -7 -8 -13 -16 -13 -8 0 -15 -4 -15 -9 0 -5 -17 -18 -37
-29 -21 -11 -37 -25 -36 -31 2 -6 -4 -8 -14 -4 -9 4 -14 2 -10 -3 3 -5 -2 -10
-11 -10 -9 -1 -44 -9 -77 -18 -116 -32 -264 -16 -360 37 -25 14 -43 23 -41 19
3 -4 -3 -8 -13 -8 -10 0 -18 6 -18 13 0 7 5 9 10 6 6 -4 7 -1 3 6 -5 7 -14 10
-22 7 -8 -3 -13 -2 -11 2 4 13 -66 91 -77 85 -6 -3 -8 -3 -4 1 3 4 -7 30 -23
57 -16 28 -29 51 -29 53 0 2 -7 20 -15 40 -13 30 -18 34 -29 24 -18 -17 -8
-48 15 -48 11 0 19 -4 19 -9 0 -13 -52 -4 -61 10 -6 10 -11 10 -23 0 -13 -11
-18 -10 -32 3 -14 14 -14 19 -2 33 9 12 9 15 1 9 -8 -4 -13 -1 -13 8 0 9 9 16
20 16 11 0 20 -4 20 -10 0 -5 7 -10 16 -10 11 0 15 6 11 20 -3 11 -1 20 4 20
5 0 9 -6 10 -12 0 -9 2 -9 6 1 5 11 7 11 15 0 6 -10 8 -7 6 11 -3 25 -3 25
-113 25 -124 0 -177 15 -256 71 -64 46 -135 125 -161 178 -21 44 -38 59 -38
34 0 -6 -3 -8 -6 -5 -4 4 -2 12 4 19 7 9 6 29 -4 68 -11 44 -14 169 -14 654 0
330 -3 597 -6 593 -3 -3 -5 -242 -5 -531 1 -381 -2 -526 -10 -526 -7 0 -9 -13
-5 -37 4 -27 3 -32 -4 -18 -12 27 -12 95 0 95 6 0 10 18 10 40 0 22 -4 40 -9
40 -5 0 -12 72 -16 160 l-8 160 -33 0 -34 0 0 120 0 120 -120 0 -120 0 0 40 0
40 -40 0 -40 0 0 80 c0 47 -4 80 -10 80 -5 0 -10 18 -10 40 0 22 5 40 10 40 6
0 10 18 10 40 0 36 -2 40 -25 40 -25 0 -25 1 -25 80 l0 80 -55 0 -55 0 0 80
c0 64 3 80 15 80 12 0 15 16 15 80 0 64 3 80 15 80 11 0 15 11 15 40 0 36 3
40 25 40 23 0 25 4 25 40 0 29 -4 40 -15 40 -11 0 -15 11 -15 40 0 36 -2 40
-25 40 -22 0 -25 4 -25 40 0 29 -4 40 -15 40 -12 0 -15 16 -15 80 0 64 3 80
15 80 12 0 15 16 15 80 l0 80 -55 0 -55 0 0 40 c0 29 4 40 15 40 12 0 15 16
15 80 0 64 3 80 15 80 11 0 15 11 15 40 0 22 5 40 10 40 6 0 10 33 10 80 l0
80 30 0 30 0 0 80 c0 47 4 80 10 80 6 0 10 -18 10 -40 l0 -40 40 0 40 0 0 40
c0 29 4 40 15 40 11 0 15 11 15 40 0 36 3 40 25 40 l25 0 0 160 c0 100 -4 160
-10 160 -5 0 -10 18 -10 40 l0 40 90 0 90 0 0 80 0 80 40 0 40 0 0 80 c0 47
-4 80 -10 80 -5 0 -10 18 -10 40 l0 40 50 0 50 0 0 40 0 40 -40 0 c-29 0 -40
4 -40 15 0 11 11 15 40 15 29 0 40 -4 40 -15 0 -11 11 -15 40 -15 l40 0 0 40
0 40 55 0 55 0 0 40 c0 36 3 40 25 40 23 0 25 4 25 40 0 40 0 40 39 40 29 0
41 -5 44 -17 2 -10 2 8 -1 41 l-5 58 44 -3 44 -4 -3 83 -3 82 40 0 41 0 0 40
0 40 40 0 40 0 0 40 0 40 40 0 40 0 0 40 0 40 40 0 40 0 0 40 0 40 40 0 40 0
0 40 0 40 40 0 40 0 0 55 0 55 40 0 c29 0 40 -4 40 -15 0 -11 11 -15 40 -15
l40 0 0 40 0 40 40 0 40 0 0 55 0 55 40 0 c29 0 40 -4 40 -15 0 -11 11 -15 40
-15 l40 0 0 40 0 40 40 0 40 0 0 40 0 40 40 0 40 0 0 40 0 40 40 0 c29 0 40 4
40 15 0 11 11 15 40 15 29 0 40 -4 40 -15 0 -11 11 -15 40 -15 l40 0 0 40 0
40 40 0 c29 0 40 4 40 15 0 11 11 15 40 15 29 0 40 -4 40 -15 0 -11 11 -15 40
-15 l40 0 0 55 0 55 40 0 c38 0 40 -2 40 -30 0 -28 2 -30 40 -30 29 0 40 4 40
15 0 12 16 15 80 15 79 0 80 0 80 25 0 25 1 25 80 25 64 0 80 3 80 15 0 11
-11 15 -40 15 -29 0 -40 4 -40 15 0 11 11 15 40 15 29 0 40 -4 40 -15 0 -11
11 -15 40 -15 29 0 40 4 40 15 0 11 11 15 40 15 22 0 40 5 40 10 0 6 47 10
120 10 73 0 120 -4 120 -10z m-3280 -4560 c0 -22 -4 -40 -10 -40 -5 0 -10 18
-10 40 0 22 5 40 10 40 6 0 10 -18 10 -40z m6800 -720 c0 -22 -4 -40 -10 -40
-5 0 -10 18 -10 40 0 22 5 40 10 40 6 0 10 -18 10 -40z m-162 -275 c-1 -24 -6
-41 -10 -37 -7 7 0 82 8 82 2 0 3 -20 2 -45z m-6133 -23 c-3 -3 -5 0 -5 7 0 7
-4 10 -9 7 -5 -4 -7 4 -3 16 l5 22 9 -24 c5 -12 6 -25 3 -28z m12 -63 c14 -17
10 -64 -8 -74 -4 -3 -3 8 3 25 8 25 7 34 -6 49 -9 10 -15 26 -15 37 1 18 2 18
6 -1 3 -11 12 -27 20 -36z m6113 9 c0 -16 -3 -19 -11 -11 -6 6 -8 16 -5 22 11
17 16 13 16 -11z m-6127 -48 c-3 -12 -8 -19 -11 -16 -5 6 5 36 12 36 2 0 2 -9
-1 -20z m6117 6 c0 -3 -4 -8 -10 -11 -5 -3 -10 -1 -10 4 0 6 5 11 10 11 6 0
10 -2 10 -4z m12 -35 c-5 -3 -12 -15 -15 -26 -4 -16 -5 -15 -6 6 -1 29 7 41
21 32 7 -3 7 -8 0 -12z m-32 -31 c0 -5 -5 -10 -11 -10 -5 0 -7 5 -4 10 3 6 8
10 11 10 2 0 4 -4 4 -10z m-6022 -26 c8 -15 8 -21 -1 -21 -7 0 -13 11 -13 24
-2 27 -1 27 14 -3z m6042 -29 c0 -5 -5 -3 -10 5 -5 8 -10 20 -10 25 0 6 5 3
10 -5 5 -8 10 -19 10 -25z m-6003 -27 c9 -11 11 -18 5 -18 -7 0 -12 -5 -12
-11 0 -6 6 -9 14 -6 7 3 23 -5 35 -19 11 -13 16 -24 11 -24 -6 0 -13 6 -16 14
-3 8 -16 13 -29 11 -14 -1 -22 2 -19 6 8 13 -10 11 -23 -2 -8 -8 -13 -7 -18 1
-4 6 -2 17 4 23 6 6 11 18 11 27 0 13 -1 13 -10 0 -5 -8 -10 -10 -10 -4 0 27
33 28 57 2z m5943 -11 c0 -2 -12 -14 -27 -28 l-28 -24 24 28 c23 25 31 32 31
24z m-5874 -98 c4 -8 1 -8 -14 0 -12 6 -24 16 -28 22 -4 8 -1 8 14 0 12 -6 24
-16 28 -22z m5785 4 c13 -16 12 -17 -3 -4 -10 7 -18 15 -18 17 0 8 8 3 21 -13z
m-5783 -28 c2 -2 -7 -2 -21 -1 -13 0 -24 6 -24 13 0 9 6 9 21 1 12 -6 22 -12
24 -13z m5712 -58 c0 -9 -36 9 -44 22 -4 5 5 4 19 -2 14 -7 25 -16 25 -20z
m-65 14 c-6 -5 -39 -12 -75 -15 l-65 -5 65 13 c87 18 86 18 75 7z m-5248 -7
c-3 -3 -12 -4 -19 -1 -8 3 -5 6 6 6 11 1 17 -2 13 -5z m4973 -4 c0 -5 -5 -10
-11 -10 -5 0 -7 5 -4 10 3 6 8 10 11 10 2 0 4 -4 4 -10z m-5187 -7 c-7 -2 -19
-2 -25 0 -7 3 -2 5 12 5 14 0 19 -2 13 -5z m172 -3 c3 -6 -4 -10 -17 -10 -18
0 -20 2 -8 10 19 12 18 12 25 0z m5315 0 c0 -5 -7 -10 -16 -10 -8 0 -12 5 -9
10 3 6 10 10 16 10 5 0 9 -4 9 -10z m-5540 -4 c0 -2 -7 -7 -16 -10 -8 -3 -12
-2 -9 4 6 10 25 14 25 6z m5367 -2 c-3 -3 -12 -4 -19 -1 -8 3 -5 6 6 6 11 1
17 -2 13 -5z m113 -4 c-14 -4 -36 -8 -50 -8 -22 0 -22 1 5 8 17 4 39 8 50 8
16 0 15 -2 -5 -8z m-5443 -6 c-3 -3 -12 -4 -19 -1 -8 3 -5 6 6 6 11 1 17 -2
13 -5z m80 0 c-3 -3 -12 -4 -19 -1 -8 3 -5 6 6 6 11 1 17 -2 13 -5z m205 -126
c-19 -19 -14 -32 6 -17 15 12 16 12 4 -2 -7 -9 -10 -23 -7 -31 4 -9 0 -18 -9
-21 -10 -4 -13 -1 -10 7 3 8 1 17 -5 20 -13 8 7 56 23 56 6 0 5 -5 -2 -12z
m31 -48 c3 -11 1 -18 -4 -14 -5 3 -9 12 -9 20 0 20 7 17 13 -6z m4797 -24 c-5
-15 -8 -31 -6 -35 3 -4 -1 -8 -8 -8 -10 0 -12 6 -6 21 5 12 11 30 14 40 4 10
9 17 12 14 2 -3 0 -17 -6 -32z m-4817 -13 c-7 -2 -13 -12 -13 -20 0 -9 -3 -14
-6 -10 -10 10 4 37 18 36 10 0 10 -2 1 -6z m4843 -13 c0 -12 -4 -16 -9 -11 -5
5 -6 14 -3 20 10 15 12 14 12 -9z m-4756 -42 c0 -4 -10 -13 -22 -19 l-23 -12
20 23 c19 22 19 23 1 16 -15 -5 -17 -4 -8 7 7 8 11 16 9 18 -1 2 4 -2 11 -10
6 -8 12 -18 12 -23z m3991 -25 c13 -16 12 -17 -3 -4 -10 7 -18 15 -18 17 0 8
8 3 21 -13z m-3321 -13 c0 -5 -5 -10 -11 -10 -5 0 -7 5 -4 10 3 6 8 10 11 10
2 0 4 -4 4 -10z m-636 -10 c2 -3 -13 -5 -34 -5 -21 0 -37 3 -34 6 4 8 60 6 68
-1z m4521 -40 c-27 -12 -43 -12 -25 0 8 5 22 9 30 9 10 0 8 -3 -5 -9z m-3958
-7 c-4 -3 -3 -11 3 -17 5 -7 5 -17 -1 -26 -7 -12 -11 -12 -17 -2 -5 7 -17 10
-28 7 -13 -4 -11 -1 6 10 15 10 18 14 7 11 -10 -3 -31 -6 -45 -6 -21 0 -24 -2
-12 -10 8 -5 11 -10 5 -10 -5 0 -17 4 -24 9 -12 8 -8 11 15 16 16 4 43 11 59
15 40 11 39 11 32 3z m3898 -20 c-20 -15 -20 -15 2 -10 13 3 25 1 28 -4 3 -4
-17 -7 -44 -6 l-50 2 32 16 c41 22 57 23 32 2z m-4318 1 c-3 -3 -12 -4 -19 -1
-8 3 -5 6 6 6 11 1 17 -2 13 -5z m-37 -8 c0 -2 -7 -6 -15 -10 -8 -3 -15 -1
-15 4 0 6 7 10 15 10 8 0 15 -2 15 -4z m100 -6 c-20 -13 -33 -13 -25 0 3 6 14
10 23 10 15 0 15 -2 2 -10z m210 0 c-8 -5 -19 -10 -25 -10 -5 0 -3 5 5 10 8 5
20 10 25 10 6 0 3 -5 -5 -10z"/>
<path d="M3840 8465 c0 -11 11 -15 40 -15 29 0 40 4 40 15 0 11 -11 15 -40 15
-29 0 -40 -4 -40 -15z"/>
<path d="M4978 8124 c-151 -23 -336 -96 -435 -171 -18 -14 -37 -22 -43 -18 -6
4 -9 2 -8 -3 4 -13 -198 -203 -207 -194 -5 4 -5 1 -1 -6 9 -15 -53 -104 -67
-95 -6 3 -7 1 -4 -5 4 -5 -11 -42 -33 -82 -50 -87 -104 -245 -125 -364 -61
-352 66 -734 332 -993 147 -144 357 -250 570 -288 179 -31 423 -13 578 42 635
227 929 939 640 1551 -24 51 -53 106 -65 122 -12 16 -18 35 -14 41 4 7 3 9 -3
6 -11 -7 -49 41 -45 55 1 5 -1 7 -6 6 -11 -2 -187 176 -183 187 1 5 0 7 -4 3
-4 -3 -43 17 -88 46 -229 148 -507 204 -789 160z"/>
<path d="M1600 5880 c0 -29 4 -40 15 -40 11 0 15 11 15 40 0 29 -4 40 -15 40
-11 0 -15 -11 -15 -40z"/>
<path d="M4176 5705 c-210 -43 -373 -131 -509 -275 -82 -86 -132 -162 -173
-263 l-32 -79 56 -57 c32 -31 69 -79 84 -107 51 -95 58 -150 58 -491 l0 -313
1505 0 1505 0 0 313 c0 282 2 322 20 393 23 89 70 166 136 222 l42 35 -18 51
c-73 214 -275 424 -494 515 -169 70 -89 65 -1151 68 -782 1 -973 -1 -1029 -12z"/>
<path d="M3078 4850 c-49 -26 -93 -82 -109 -139 -21 -69 -20 -1924 0 -1994 18
-62 79 -131 136 -153 80 -30 177 0 223 69 l27 41 5 1005 c4 570 2 1024 -3
1047 -11 51 -59 112 -103 130 -48 20 -132 17 -176 -6z"/>
<path d="M7065 4848 c-45 -27 -81 -74 -95 -129 -7 -25 -9 -383 -8 -1037 l3
-1000 30 -43 c88 -125 262 -114 339 21 l31 55 0 1005 0 1005 -24 42 c-38 66
-90 97 -170 101 -54 2 -73 -1 -106 -20z"/>
<path d="M2166 4521 c-3 -5 1 -14 8 -20 10 -9 16 -9 21 -1 4 6 1 9 -7 8 -7 -2
-12 3 -10 10 2 14 -4 16 -12 3z"/>
<path d="M2160 4459 c-7 -11 -10 -23 -7 -25 2 -2 9 7 15 21 14 30 7 33 -8 4z"/>
<path d="M8188 4413 c5 -21 7 -23 10 -9 2 10 0 22 -6 28 -6 6 -7 0 -4 -19z"/>
<path d="M2514 4401 c-51 -23 -80 -64 -95 -129 -7 -34 -9 -232 -7 -604 3 -530
4 -555 23 -593 34 -68 113 -105 192 -90 48 9 108 68 122 120 7 27 10 236 8
620 l-2 580 -24 38 c-44 71 -135 95 -217 58z"/>
<path d="M7686 4410 c-37 -12 -75 -47 -92 -87 -20 -47 -20 -1198 0 -1246 53
-129 247 -124 307 7 17 38 19 78 19 622 l0 581 -23 43 c-38 73 -125 105 -211
80z"/>
<path d="M2124 4366 c-3 -8 -4 -23 -2 -33 3 -11 6 -6 9 15 6 34 2 42 -7 18z"/>
<path d="M8206 4365 c-9 -26 -7 -32 5 -12 6 10 9 21 6 23 -2 3 -7 -2 -11 -11z"/>
<path d="M2020 3880 l0 -120 40 0 40 0 0 59 c0 32 -3 86 -6 120 l-7 61 -33 0
-34 0 0 -120z"/>
<path d="M3795 3845 c-80 -21 -145 -112 -145 -202 0 -66 51 -147 114 -181 29
-16 132 -17 1375 -20 1486 -3 1415 -6 1478 60 34 35 63 103 63 147 0 86 -68
179 -145 199 -63 17 -2675 13 -2740 -3z"/>
<path d="M8271 3728 c0 -18 4 -55 9 -83 7 -47 7 -45 9 33 0 49 -3 82 -9 82 -5
0 -10 -15 -9 -32z"/>
<path d="M2093 3560 c0 -25 2 -35 4 -22 2 12 2 32 0 45 -2 12 -4 2 -4 -23z"/>
<path d="M3660 2936 c0 -134 -3 -258 -6 -275 -4 -21 -3 -31 5 -31 8 0 10 8 6
23 -5 18 -3 17 13 -7 11 -15 19 -39 17 -53 -1 -13 0 -21 3 -18 3 2 12 -1 20
-8 11 -8 10 -3 -3 18 -18 27 -16 27 25 -10 25 -23 59 -51 77 -64 18 -14 29
-29 26 -34 -3 -6 -1 -7 5 -3 7 4 17 4 23 0 8 -5 8 -9 -1 -14 -8 -5 -7 -9 5
-13 9 -4 13 -3 10 3 -9 14 -1 13 40 -7 25 -12 32 -19 23 -26 -9 -6 -8 -7 3 -4
9 3 52 -6 95 -21 l79 -27 990 -3 c1053 -3 1077 -3 1208 45 37 13 72 21 79 17
7 -5 8 -3 3 6 -6 10 -4 12 9 7 9 -4 15 -3 12 2 -3 5 20 24 52 44 31 19 74 51
94 71 37 36 62 50 38 21 -9 -10 -9 -15 -1 -15 6 0 11 5 11 11 0 5 6 7 13 3 8
-5 7 -2 -2 9 -8 10 -12 19 -10 20 2 1 13 9 24 17 19 14 19 14 5 -4 -10 -12
-11 -21 -4 -23 6 -2 10 -16 9 -31 -1 -15 0 -19 2 -9 3 13 11 17 24 14 17 -4
17 -3 6 16 -8 16 -13 105 -15 310 l-3 287 -1505 0 -1504 0 0 -244z"/>
<path d="M3641 2594 c0 -11 3 -14 6 -6 3 7 2 16 -1 19 -3 4 -6 -2 -5 -13z"/>
<path d="M3636 2547 c3 -10 9 -15 12 -12 3 3 0 11 -7 18 -10 9 -11 8 -5 -6z"/>
<path d="M3601 2493 c-10 -21 -9 -23 8 -14 10 6 20 8 23 6 2 -2 4 4 4 14 0 25
-22 22 -35 -6z"/>
<path d="M6746 2425 c-3 -9 -11 -13 -17 -9 -8 5 -9 3 -4 -5 6 -10 11 -9 23 3
9 8 13 18 10 21 -3 3 -8 -1 -12 -10z"/>
<path d="M6900 2260 c8 -5 22 -9 30 -9 10 0 8 3 -5 9 -27 12 -43 12 -25 0z"/>
<path d="M2182 2840 c-18 -29 -15 -36 8 -15 20 18 26 35 12 35 -4 0 -13 -9
-20 -20z"/>
</g>
</svg>
