<?xml version="1.0" standalone="no"?>
<!DOCTYPE svg PUBLIC "-//W3C//DTD SVG 20010904//EN"
 "http://www.w3.org/TR/2001/REC-SVG-20010904/DTD/svg10.dtd">
<svg version="1.0" xmlns="http://www.w3.org/2000/svg"
 width="1024.000000pt" height="1024.000000pt" viewBox="0 0 1024.000000 1024.000000"
 preserveAspectRatio="xMidYMid meet">

<g transform="translate(0.000000,1024.000000) scale(0.100000,-0.100000)"
fill="#000000" stroke="none">
<path d="M0 5120 l0 -5120 5120 0 5120 0 0 5120 0 5120 -5120 0 -5120 0 0
-5120z m5368 4104 c160 -33 300 -110 419 -229 69 -70 90 -99 132 -187 l51
-104 51 -13 c207 -53 579 -253 832 -449 194 -149 442 -429 591 -666 l57 -90
78 -26 c214 -72 414 -267 495 -481 37 -99 56 -207 56 -321 0 -225 -72 -418
-213 -574 l-45 -50 5 -210 c6 -247 -7 -365 -67 -597 l-38 -149 15 -72 c26
-122 2 -239 -68 -337 l-22 -31 24 -46 c21 -41 24 -63 27 -177 3 -151 -7 -191
-66 -247 -96 -93 -228 -120 -324 -66 -42 23 -48 25 -60 10 -26 -31 -133 -93
-196 -112 -57 -18 -77 -31 -151 -103 -98 -94 -163 -145 -311 -244 -471 -315
-1075 -477 -1610 -434 -629 52 -1136 271 -1617 698 -46 40 -91 73 -101 73 -27
0 -152 63 -201 103 l-44 35 -34 -24 c-85 -57 -205 -39 -317 49 -64 51 -85 110
-85 247 0 125 9 176 38 211 18 22 18 23 -20 82 -55 85 -76 187 -59 282 19 102
17 130 -14 230 -56 185 -70 296 -72 577 l-2 257 -52 58 c-71 80 -123 171 -161
283 -29 84 -33 111 -37 236 -5 155 8 238 54 356 57 146 183 306 309 391 57 39
181 97 236 110 19 5 40 30 78 93 133 217 392 512 587 667 203 162 524 343 749
422 150 52 158 57 174 102 36 104 132 232 229 306 61 47 189 115 256 137 124
40 317 50 444 24z m-2720 -5590 c26 -8 39 -48 22 -69 -10 -12 -51 -15 -240
-15 -211 0 -228 1 -244 19 -14 15 -15 24 -7 40 11 20 21 21 214 24 111 1 209
3 217 5 8 1 25 -1 38 -4z m5509 -20 c17 -23 16 -29 -3 -48 -23 -24 -469 -24
-495 0 -18 17 -16 41 7 60 8 6 94 10 245 8 212 -1 233 -3 246 -20z m-4999 -76
c18 -18 14 -46 -7 -58 -11 -5 -82 -10 -160 -10 -114 0 -142 3 -155 16 -9 8
-16 19 -16 24 0 5 7 16 16 24 13 13 42 16 163 16 101 0 151 -4 159 -12z m4336
-4 c21 -21 20 -30 -6 -48 -17 -12 -50 -16 -141 -16 -123 0 -157 8 -157 38 0
37 20 42 156 42 107 0 136 -3 148 -16z m-4820 -86 c8 -13 8 -23 0 -35 -10 -16
-34 -18 -230 -21 -120 -1 -229 0 -241 3 -26 6 -39 41 -22 61 10 12 50 14 247
12 211 -3 236 -5 246 -20z m5490 0 c8 -13 8 -23 0 -35 -10 -16 -36 -18 -257
-21 l-247 -2 -6 25 c-13 54 -3 56 259 53 216 -3 241 -5 251 -20z m-5634 -588
l0 -120 -255 0 -255 0 0 -90 0 -90 168 7 c92 3 185 3 205 -1 l37 -7 0 -115 0
-114 -205 6 -205 7 0 -201 0 -202 -130 0 -130 0 0 520 0 520 385 0 385 0 0
-120z m410 -400 l0 -520 -125 0 -125 0 0 520 0 520 125 0 125 0 0 -520z m1050
400 l0 -120 -153 0 -153 0 0 -397 1 -398 -127 -3 -128 -3 0 401 0 400 -160 0
-160 0 0 120 0 120 440 0 440 0 0 -120z m542 -61 c-1 -97 0 -184 4 -193 5 -14
32 -16 230 -16 l224 0 0 195 0 196 125 -3 125 -3 0 -505 c1 -278 1 -511 1
-517 -1 -10 -33 -13 -126 -13 l-125 0 0 205 0 205 -230 0 -230 0 0 -205 0
-205 -125 0 -125 0 0 520 0 521 128 -3 127 -3 -3 -176z m1158 -136 c0 -200 4
-333 11 -358 20 -74 119 -145 200 -145 67 0 150 48 182 104 8 15 13 122 17
366 l5 345 128 0 128 0 -1 -340 c0 -248 -4 -354 -14 -390 -45 -173 -184 -291
-367 -314 -283 -36 -505 120 -539 380 -11 83 -14 652 -3 662 3 4 62 7 130 7
l123 0 0 -317z m1428 307 c177 -23 282 -126 282 -275 -1 -94 -38 -159 -115
-198 l-30 -15 41 -11 c65 -17 106 -51 137 -110 59 -118 21 -274 -86 -347 -92
-63 -118 -67 -470 -72 -285 -3 -318 -2 -323 13 -4 9 -3 243 1 520 l7 505 242
0 c132 0 274 -5 314 -10z m789 -87 c37 -54 85 -124 106 -155 21 -32 40 -58 41
-58 2 0 25 33 51 73 26 39 75 109 108 155 l61 82 148 0 c81 0 148 -3 148 -6 0
-4 -35 -55 -79 -113 -43 -58 -126 -173 -185 -254 l-107 -148 71 -97 c39 -53
122 -169 186 -257 l115 -160 -148 -3 -148 -3 -23 28 c-12 15 -61 85 -109 156
-48 70 -89 127 -92 127 -4 -1 -46 -58 -96 -127 -49 -69 -101 -139 -113 -154
l-24 -29 -149 0 -149 0 88 119 c48 65 116 159 151 207 36 49 82 110 103 135
21 26 38 52 38 59 0 8 -290 426 -353 508 -7 9 22 12 141 12 l151 0 68 -97z
m-4591 -1266 l31 -47 32 50 c24 37 39 50 57 50 24 0 24 0 24 -105 l0 -105 -25
0 c-24 0 -25 3 -25 57 l0 58 -25 -38 c-14 -20 -30 -37 -35 -37 -5 0 -19 14
-32 30 -31 42 -40 37 -36 -17 3 -45 2 -48 -24 -51 l-26 -3 -1 110 -1 109 27
-7 c18 -5 39 -24 59 -54z m4516 -37 c25 -52 47 -101 47 -107 2 -22 -46 -15
-52 7 -4 17 -14 20 -54 20 -36 0 -53 -5 -66 -20 -18 -21 -47 -27 -47 -9 0 13
66 156 86 187 8 13 21 22 27 20 7 -2 33 -46 59 -98z m-5572 75 c76 -39 31
-135 -64 -135 -22 0 -26 -4 -26 -31 0 -26 -3 -30 -22 -27 -22 3 -23 8 -26 106
l-3 102 56 0 c31 0 69 -7 85 -15z m240 -10 c0 -24 -3 -25 -55 -25 -42 0 -55
-3 -55 -15 0 -11 12 -15 45 -15 25 0 45 -2 45 -4 0 -2 3 -11 6 -20 5 -13 -2
-16 -45 -16 -44 0 -51 -3 -51 -20 0 -18 7 -20 55 -20 52 0 55 -1 55 -25 0 -25
-1 -25 -80 -25 l-80 0 0 105 0 105 80 0 c79 0 80 0 80 -25z m205 5 c8 -6 17
-28 21 -47 5 -27 2 -39 -15 -57 -25 -26 -27 -46 -6 -46 20 0 19 -26 -1 -34 -9
-4 -29 7 -51 29 -44 43 -53 44 -53 6 0 -23 -5 -30 -25 -33 l-25 -5 0 105 0
105 70 -5 c38 -3 76 -11 85 -18z m216 -1 c16 -25 3 -33 -49 -30 -31 1 -52 -2
-52 -8 0 -15 35 -31 70 -31 24 0 33 -6 40 -26 14 -36 13 -42 -15 -69 -27 -27
-63 -32 -114 -14 -39 14 -40 46 -1 40 55 -8 74 -6 78 10 2 12 -7 18 -34 22
-74 12 -102 81 -46 112 32 18 110 14 123 -6z m219 4 c68 -40 64 -150 -7 -182
-61 -28 -124 -4 -149 55 -21 51 -17 73 20 110 39 39 89 45 136 17z m430 -88
l0 -105 -25 0 -25 0 0 105 0 105 25 0 25 0 0 -105z m110 0 l0 -105 -25 0 -25
0 0 105 0 105 25 0 25 0 0 -105z m224 83 c-3 -12 -26 -47 -50 -77 -24 -31 -44
-59 -44 -63 0 -5 23 -8 50 -8 42 0 50 -3 50 -19 0 -16 -9 -19 -90 -20 -60 -1
-90 2 -90 9 0 17 30 71 62 113 l30 37 -40 0 c-38 0 -52 11 -52 41 0 5 41 9 91
9 88 0 90 -1 83 -22z m100 -24 c3 -26 6 -73 6 -105 0 -59 0 -59 -30 -59 l-30
0 0 105 c0 104 0 105 24 105 20 0 24 -6 30 -46z m226 32 c0 -7 -22 -42 -50
-77 -27 -35 -50 -67 -50 -71 0 -5 24 -8 54 -8 49 0 54 -2 49 -20 -5 -18 -14
-20 -94 -20 -55 0 -89 4 -89 10 0 20 38 85 64 109 36 34 33 41 -19 41 -41 0
-45 2 -45 25 0 25 1 25 90 25 70 0 90 -3 90 -14z m200 -10 c0 -23 -4 -25 -50
-28 -64 -4 -70 -22 -9 -26 41 -3 46 -6 42 -23 -4 -15 -14 -19 -48 -19 -36 0
-43 -3 -40 -17 2 -10 4 -21 4 -25 1 -4 24 -5 51 -2 49 5 50 5 50 -21 l0 -26
-76 3 -76 3 -3 95 c-1 52 0 98 2 103 2 4 38 7 79 7 72 0 74 -1 74 -24z m165
14 c45 -10 62 -29 71 -77 14 -77 -37 -123 -136 -123 l-50 0 0 105 0 105 38 0
c20 0 55 -5 77 -10z m253 1 c9 -5 32 -30 51 -55 19 -25 39 -46 44 -46 5 0 7
24 5 55 -5 55 -5 55 24 55 l28 0 0 -100 c0 -130 -12 -138 -85 -57 -56 61 -66
67 -63 40 1 -10 0 -35 0 -55 -2 -32 -5 -38 -24 -38 -22 0 -23 4 -25 105 -2
111 2 119 45 96z m264 -68 l3 -78 33 -3 c27 -3 34 1 43 25 6 15 9 52 7 81 -5
51 -4 52 24 52 28 0 28 -1 28 -60 0 -69 -19 -123 -48 -139 -37 -20 -91 -13
-117 14 -22 22 -25 32 -25 105 0 78 1 80 25 80 23 0 24 -3 27 -77z m348 52 c0
-21 -5 -25 -30 -25 l-30 0 0 -80 c0 -79 0 -80 -25 -80 -25 0 -25 1 -25 80 l0
80 -35 0 c-27 0 -35 4 -35 18 0 29 8 32 97 32 82 0 83 0 83 -25z m90 -80 l0
-105 -25 0 -25 0 0 105 0 105 25 0 25 0 0 -105z m218 83 c-2 -18 -11 -24 -35
-26 l-33 -3 0 -80 c0 -78 -1 -80 -22 -77 -21 3 -23 9 -26 81 -3 77 -3 77 -31
77 -34 0 -40 6 -34 31 5 17 15 19 95 19 87 0 89 -1 86 -22z m82 -83 l0 -105
-25 0 c-25 0 -25 1 -25 89 0 103 5 121 31 121 17 0 19 -9 19 -105z m209 91
c31 -17 51 -54 51 -97 0 -41 -15 -66 -50 -84 -120 -62 -221 92 -116 177 26 21
77 23 115 4z m183 -40 c24 -30 46 -55 51 -55 4 -1 7 24 7 54 0 54 0 55 29 55
l30 0 -5 -97 c-2 -54 -4 -101 -4 -105 0 -5 -8 -8 -18 -8 -11 0 -42 27 -70 60
l-51 61 -3 -58 c-3 -51 -6 -58 -25 -61 -23 -3 -23 -2 -23 102 0 98 1 106 20
106 11 0 36 -22 62 -54z m239 22 c15 -18 39 -46 53 -63 l25 -30 1 63 c0 59 1
62 25 62 l25 0 0 -105 c0 -96 -2 -105 -19 -105 -10 0 -40 25 -67 57 l-49 57
-5 -54 c-4 -48 -8 -55 -27 -58 -23 -3 -23 -2 -23 102 0 121 10 133 61 74z
m364 -64 c25 -54 45 -101 45 -105 0 -18 -40 -8 -50 11 -8 16 -21 20 -59 20
-35 0 -53 -5 -66 -20 -17 -18 -55 -28 -55 -14 0 3 16 40 36 81 19 42 39 86 44
99 7 17 17 24 35 24 22 0 30 -12 70 -96z m137 14 l3 -82 53 3 c50 2 52 1 52
-23 0 -26 -1 -26 -80 -26 l-80 0 0 105 c0 105 0 105 25 105 23 0 24 -2 27 -82z
m403 68 c21 -9 35 -22 36 -33 4 -59 -19 -93 -62 -93 -45 0 -59 -10 -59 -41 0
-24 -4 -29 -25 -29 l-25 0 0 105 0 105 50 0 c28 0 66 -7 85 -14z m135 -65 l0
-80 53 -3 c45 -3 52 -6 55 -25 3 -22 1 -23 -77 -23 l-81 0 0 105 0 105 25 0
c25 0 25 -1 25 -79z m487 22 l52 -58 1 58 c0 53 2 57 24 57 29 0 33 -17 28
-127 -5 -103 -18 -107 -88 -26 l-49 58 -5 -55 c-4 -48 -8 -55 -27 -58 -23 -3
-23 -2 -23 102 0 129 9 135 87 49z m294 47 c21 -12 26 -39 7 -41 -7 -1 -30 0
-52 1 -48 2 -46 -21 3 -31 94 -19 95 -129 1 -129 -50 0 -100 19 -100 37 0 13
8 15 45 10 24 -4 51 -4 59 -1 21 8 8 34 -18 34 -32 0 -86 37 -86 59 0 10 9 30
21 45 16 20 29 26 60 26 22 0 49 -5 60 -10z"/>
<path d="M5030 9080 c-41 -11 -117 -40 -169 -66 -132 -65 -212 -145 -274 -274
-25 -52 -48 -109 -52 -126 -5 -27 -13 -33 -63 -48 -175 -55 -419 -167 -602
-275 -294 -175 -573 -448 -784 -766 -41 -60 -81 -122 -89 -137 -13 -21 -35
-32 -104 -53 -194 -60 -332 -174 -421 -351 -63 -123 -77 -186 -77 -334 1 -119
4 -144 28 -215 37 -112 90 -198 174 -283 l72 -74 -11 -134 c-20 -228 9 -506
73 -711 l32 -101 -21 -44 c-58 -123 -30 -261 85 -411 48 -63 48 -63 -2 -112
-58 -56 -65 -74 -65 -165 0 -79 3 -91 24 -118 36 -41 106 -77 138 -69 15 4 51
29 81 57 l54 49 74 -64 c91 -80 186 -130 249 -131 42 0 51 -5 96 -50 263 -264
595 -465 970 -587 255 -84 486 -120 759 -120 256 0 452 30 705 107 115 35 352
135 465 196 175 96 375 243 496 365 78 79 87 85 125 85 60 0 166 57 251 135
l73 66 47 -45 c66 -63 92 -73 146 -52 55 21 103 67 111 107 3 17 6 61 6 96 l0
65 -61 63 -61 64 42 48 c24 26 59 82 79 123 33 69 36 82 36 165 -1 74 -5 98
-23 133 l-23 43 25 77 c76 242 103 521 75 771 l-12 99 69 69 c234 234 279 586
111 884 -94 168 -250 278 -458 323 -19 4 -42 31 -89 103 -122 190 -233 326
-395 488 -156 156 -256 237 -393 321 -191 117 -433 231 -613 289 l-86 28 -12
51 c-34 146 -167 307 -317 384 -155 79 -337 102 -494 62z m299 -124 c73 -33
173 -80 223 -105 l90 -46 58 -150 c31 -82 69 -174 84 -204 l28 -54 -26 -56
c-30 -68 -96 -262 -96 -284 0 -20 -35 -47 -188 -141 l-122 -76 -190 0 -190 0
-127 81 c-71 45 -138 90 -150 102 -12 11 -34 54 -47 96 -14 42 -43 120 -65
174 -22 54 -37 106 -34 115 3 9 18 42 33 72 15 30 49 109 74 175 60 154 54
145 117 180 70 38 382 183 390 181 3 0 65 -28 138 -60z m-1055 -766 c15 -23
42 -48 61 -57 19 -9 35 -19 35 -23 0 -3 -16 -12 -35 -19 -24 -8 -43 -26 -61
-57 l-27 -46 -26 40 c-14 22 -38 48 -53 57 -35 20 -35 31 0 49 15 8 38 32 50
55 13 23 25 41 26 41 2 0 15 -18 30 -40z m1917 -50 c22 -12 39 -24 39 -28 0
-4 -15 -14 -33 -22 -18 -8 -41 -31 -52 -52 -11 -21 -23 -38 -27 -38 -4 0 -14
15 -22 34 -10 23 -28 42 -56 56 -37 19 -46 40 -16 40 15 0 59 46 76 79 l12 24
20 -35 c12 -20 38 -46 59 -58z m317 -113 c2 -19 11 -31 29 -38 14 -5 39 -19
55 -30 22 -16 32 -19 41 -10 6 6 17 11 24 11 13 0 72 -58 73 -71 0 -3 -12 -19
-26 -34 -24 -26 -26 -34 -21 -89 4 -46 11 -64 27 -76 l22 -17 -20 -39 c-35
-68 -48 -80 -65 -65 -24 20 -111 -32 -123 -73 -9 -29 -12 -31 -65 -34 -55 -3
-57 -2 -62 25 -5 21 -18 34 -56 52 -46 22 -53 23 -77 11 -25 -14 -28 -13 -60
25 -39 46 -41 56 -15 79 14 13 20 34 23 81 2 35 0 61 -4 58 -8 -4 -12 12 -9
30 1 5 -3 6 -9 2 -6 -4 -17 -2 -25 5 -12 10 -11 17 7 48 32 59 39 64 71 58 21
-4 37 1 60 18 18 13 42 27 55 31 12 3 22 14 22 25 0 44 10 51 69 48 53 -3 56
-4 59 -31z m-2506 -56 c-7 -50 60 -80 100 -44 17 16 20 15 53 -17 42 -40 43
-52 10 -88 -22 -23 -24 -33 -19 -69 5 -33 1 -52 -15 -83 -26 -51 -26 -72 -1
-95 19 -17 19 -19 3 -38 -10 -10 -31 -26 -48 -34 -23 -13 -30 -13 -33 -3 -10
28 -54 58 -93 63 -38 5 -45 2 -88 -39 -25 -24 -48 -44 -51 -44 -3 1 -18 11
-34 24 l-29 24 21 33 20 32 -25 38 c-14 21 -28 59 -30 83 -5 43 -7 45 -45 51
-37 7 -39 9 -33 34 4 14 18 42 32 61 15 19 27 36 29 38 1 2 16 -4 34 -13 28
-15 34 -15 48 -2 10 8 34 22 55 30 33 14 37 20 37 51 l0 36 53 0 c53 0 54 0
49 -29z m896 -218 l65 -58 226 2 226 2 73 57 74 56 71 -69 c40 -38 155 -143
257 -233 102 -91 212 -190 245 -221 54 -50 253 -225 329 -290 30 -26 30 -28
19 -70 -6 -24 -21 -65 -33 -91 l-20 -47 -113 78 c-61 44 -139 98 -172 122 -72
51 -116 65 -245 79 -150 15 -151 14 -185 -157 -23 -117 -9 -137 123 -172 78
-21 86 -21 135 -7 28 8 52 14 53 13 29 -36 79 -133 103 -200 l30 -86 -32 7
c-60 13 -140 6 -184 -16 -37 -20 -45 -20 -75 -8 -113 47 -229 42 -319 -13
l-49 -31 -45 32 -45 32 0 87 c0 126 9 177 32 185 32 10 49 49 51 114 2 45 -2
63 -13 70 -12 7 -14 28 -12 104 5 124 -15 198 -61 226 -18 11 -40 20 -50 20
-10 0 -32 13 -48 29 -43 43 -92 48 -186 18 -43 -14 -99 -30 -125 -37 -80 -21
-83 -29 -82 -206 1 -117 -2 -154 -11 -154 -20 0 -26 -43 -15 -101 9 -51 30
-81 63 -92 8 -2 13 -42 15 -134 l4 -129 -47 -31 -47 -31 -36 24 c-87 59 -230
69 -316 21 l-41 -23 -44 25 c-35 19 -59 25 -106 24 -34 0 -71 -6 -83 -12 -28
-15 -28 -10 3 87 32 101 98 207 123 196 56 -25 202 -5 271 37 26 16 31 25 31
59 0 43 -35 196 -50 221 -18 28 -293 1 -341 -34 -9 -7 -59 -41 -110 -76 -52
-35 -124 -88 -162 -118 -58 -47 -68 -52 -74 -36 -3 10 -19 51 -35 92 l-29 74
23 22 c13 13 154 136 313 276 258 225 424 374 565 506 25 24 47 43 49 43 2 0
33 -26 69 -57z m-1269 -170 c22 -16 40 -33 41 -39 0 -6 -14 -18 -32 -25 -18
-7 -46 -26 -64 -41 l-32 -29 -7 29 c-7 33 -39 66 -72 77 -33 9 -29 19 15 39
21 10 47 31 56 48 l18 30 19 -31 c10 -17 37 -43 58 -58z m3236 18 c27 -10 51
-23 52 -27 2 -5 -14 -18 -35 -29 -22 -12 -43 -33 -51 -52 -8 -18 -17 -33 -21
-33 -3 0 -22 14 -43 31 l-37 31 42 48 c24 27 43 49 43 50 0 0 22 -8 50 -19z
m-3520 -423 l230 -118 45 -142 c25 -79 57 -169 73 -201 33 -71 33 -76 4 -135
-27 -52 -68 -167 -92 -255 -15 -53 -20 -61 -73 -94 -31 -21 -141 -81 -244
-134 l-187 -98 -133 71 c-333 177 -345 185 -369 258 -6 19 -33 96 -60 171 -27
75 -49 142 -49 149 0 22 141 394 155 409 17 18 446 239 460 237 6 0 114 -54
240 -118z m4169 4 l230 -117 57 -160 c31 -88 64 -177 73 -197 22 -50 20 -66
-10 -134 -15 -33 -46 -115 -70 -183 -24 -68 -45 -125 -46 -126 -44 -39 -471
-264 -483 -255 -5 4 -100 54 -210 110 -276 142 -270 138 -285 202 -15 60 -56
176 -94 261 l-26 58 32 72 c17 40 52 135 77 211 l46 139 230 118 c127 64 235
117 240 117 6 0 113 -52 239 -116z m-2150 -74 c11 -18 31 -198 21 -198 -1 0
-16 7 -34 16 -25 12 -59 15 -170 12 -120 -3 -142 -6 -160 -22 l-21 -19 0 87 0
88 33 -9 c17 -4 68 -8 112 -8 70 0 86 4 128 28 26 15 47 32 47 37 0 19 30 10
44 -12z m-811 -165 c9 -27 17 -54 17 -61 0 -34 -162 -58 -213 -30 -19 10 -27
5 -74 -48 -68 -75 -115 -174 -142 -293 -12 -51 -37 -130 -56 -174 -19 -44 -35
-82 -35 -84 0 -2 14 -3 31 -3 23 0 41 11 75 46 88 90 174 106 264 50 l54 -34
61 31 c90 47 161 44 335 -11 173 -55 229 -83 260 -129 23 -34 25 -45 25 -164
0 -114 -2 -131 -21 -156 -27 -37 -67 -56 -130 -61 -144 -12 -291 110 -339 280
-20 75 -27 85 -73 104 -57 24 -64 20 -42 -28 11 -24 16 -44 12 -46 -5 -1 -51
-8 -103 -15 l-94 -14 60 -12 c53 -12 57 -15 41 -27 -29 -21 -124 -37 -180 -30
-55 7 -176 46 -176 56 0 4 35 24 77 46 l78 39 -40 3 c-22 2 -76 -4 -119 -13
-127 -28 -230 -5 -241 53 -3 15 -10 41 -15 58 -15 48 -12 127 8 192 30 96 82
163 212 271 209 175 257 207 340 229 117 31 123 30 143 -25z m1391 33 c88 -17
89 -18 279 -165 242 -187 307 -277 315 -438 3 -55 1 -88 -7 -96 -6 -6 -11 -26
-11 -44 0 -27 -6 -37 -32 -53 -45 -27 -111 -35 -177 -20 -54 12 -237 24 -196
13 11 -3 48 -21 82 -41 72 -41 71 -51 -10 -79 -65 -22 -196 -21 -249 1 -53 23
-56 36 -9 36 46 0 71 8 71 22 0 6 -8 7 -17 4 -9 -4 -50 -2 -90 5 -80 13 -89
24 -53 69 11 14 20 28 20 32 0 9 -99 -27 -112 -40 -5 -5 -24 -52 -42 -105 -43
-123 -84 -175 -172 -218 -92 -45 -157 -50 -228 -15 -68 33 -76 54 -76 197 0
136 15 179 74 214 46 27 306 110 376 120 58 8 130 -8 180 -41 l40 -27 38 26
c102 71 184 63 279 -26 45 -42 64 -51 104 -48 12 1 9 13 -17 66 -17 36 -39
103 -49 148 -30 143 -70 225 -157 326 -16 18 -27 39 -24 47 4 10 -1 13 -17 9
-90 -20 -120 -24 -163 -19 -28 4 -58 12 -68 19 -17 13 -17 16 0 74 9 34 22 61
29 61 7 0 47 -6 89 -14z m-2145 -864 c52 -40 165 -106 241 -141 117 -53 261
-72 396 -52 l51 7 6 -75 c12 -153 60 -275 175 -446 l67 -99 0 -131 c0 -125 -2
-136 -44 -275 -24 -80 -46 -148 -50 -152 -4 -4 -63 43 -132 105 -69 61 -188
168 -264 237 -77 68 -158 141 -180 161 -22 20 -137 123 -255 230 -286 258
-381 350 -374 361 7 11 317 298 323 298 2 0 20 -13 40 -28z m2987 -124 c90
-84 164 -156 164 -160 0 -4 -42 -44 -92 -89 -123 -109 -135 -120 -333 -299
-93 -85 -190 -173 -215 -195 -24 -22 -69 -63 -100 -91 -187 -172 -471 -413
-474 -402 -3 7 -23 77 -45 155 -39 134 -41 148 -41 276 0 127 2 137 23 164
118 145 205 348 215 501 4 71 7 82 21 77 35 -14 181 -17 247 -6 38 7 101 24
139 38 73 27 238 117 290 158 17 13 31 24 33 25 2 0 77 -68 168 -152z m-1640
-270 c4 -7 7 -34 7 -61 -1 -66 -31 -98 -101 -105 -44 -4 -51 -2 -70 23 -41 52
-24 96 51 130 58 26 102 31 113 13z m176 2 c48 -14 98 -61 98 -93 0 -13 -9
-36 -21 -51 -29 -37 -95 -37 -138 0 -28 23 -31 31 -31 83 0 32 3 61 7 64 9 10
42 8 85 -3z m2097 -45 c16 -35 28 -48 60 -61 23 -9 41 -22 41 -30 0 -7 -18
-23 -39 -34 -24 -12 -48 -35 -62 -60 -13 -22 -26 -40 -29 -40 -4 0 -14 18 -22
39 -12 29 -27 45 -56 60 -22 11 -43 25 -46 30 -4 5 13 20 36 33 27 15 51 39
66 66 13 23 25 42 27 42 2 0 13 -20 24 -45z m-4404 -2 c12 -23 37 -47 63 -61
23 -13 42 -27 42 -30 0 -4 -20 -19 -45 -34 -27 -17 -52 -42 -62 -63 -9 -19
-20 -35 -24 -35 -4 0 -16 17 -26 38 -11 23 -33 45 -60 60 -24 13 -43 29 -43
36 0 7 18 20 40 30 28 12 47 30 60 57 11 21 24 39 28 39 4 0 16 -17 27 -37z
m2554 -30 c-28 -47 -69 -98 -69 -86 0 8 47 82 75 119 20 27 16 3 -6 -33z
m-699 -57 c14 -24 17 -35 7 -26 -8 8 -29 40 -46 70 -26 45 -27 50 -7 26 13
-15 34 -47 46 -70z m-63 -63 c81 -126 90 -151 103 -298 7 -71 16 -145 21 -164
l8 -34 -34 33 c-40 39 -55 81 -55 160 -1 93 -26 204 -68 299 -22 50 -38 91
-36 91 3 0 30 -39 61 -87z m792 -4 c-46 -108 -49 -121 -59 -261 -9 -134 -19
-166 -65 -208 -25 -22 -27 -23 -22 -5 3 11 11 83 18 160 7 87 19 159 31 190
18 46 119 208 125 201 2 -2 -11 -36 -28 -77z m-455 -25 c3 -9 6 -37 6 -64 0
-41 -4 -52 -26 -69 -55 -43 -134 -20 -150 44 -12 49 9 72 78 88 82 20 85 20
92 1z m208 -5 c41 -11 58 -33 58 -76 0 -47 -32 -73 -90 -73 -41 0 -52 4 -69
26 -23 29 -28 92 -10 125 11 21 20 21 111 -2z m-1932 -36 c42 -29 146 -132
280 -278 279 -305 319 -370 275 -455 -18 -34 -61 -70 -85 -70 -30 0 -33 31 -6
54 24 21 63 76 53 76 -3 0 -19 -13 -35 -30 -17 -16 -34 -30 -39 -29 -4 0 -30
26 -57 57 -93 108 -337 371 -453 489 -77 79 -82 85 -72 111 14 37 38 62 74 78
38 17 36 17 65 -3z m3604 3 c37 -15 76 -64 76 -93 0 -11 -45 -65 -102 -124
-57 -58 -188 -198 -292 -312 -103 -114 -192 -207 -196 -207 -5 0 -20 15 -35
33 l-26 32 14 -30 c8 -17 24 -38 36 -49 16 -14 18 -23 10 -37 -15 -28 -43 -23
-83 15 -30 28 -36 40 -36 75 0 80 21 112 215 331 206 233 354 380 383 380 1 0
18 -6 36 -14z m-3746 -256 c140 -139 427 -457 469 -519 52 -77 52 -92 -1 -145
-25 -25 -51 -46 -58 -46 -7 0 -25 17 -40 38 -28 40 -145 166 -430 464 -98 103
-178 194 -178 203 0 45 63 114 106 115 14 0 60 -38 132 -110z m3993 95 c33
-17 69 -69 69 -99 0 -10 -15 -32 -33 -50 -82 -76 -461 -488 -556 -603 -23 -29
-47 -53 -52 -53 -15 0 -98 80 -105 102 -9 30 43 101 233 314 219 245 375 404
397 404 9 0 30 -7 47 -15z m-2126 -74 c0 -58 -3 -66 -27 -84 -22 -17 -33 -19
-54 -11 -47 16 -87 99 -65 132 11 17 65 31 111 29 l35 -2 0 -64z m233 42 c28
-39 2 -112 -47 -133 -63 -26 -101 9 -101 93 0 24 6 49 13 56 17 18 118 6 135
-16z m-2381 -185 c36 -35 150 -153 252 -263 345 -372 341 -367 341 -449 0 -35
-6 -47 -32 -73 -47 -43 -65 -47 -73 -15 -3 14 -59 80 -123 146 -112 116 -242
252 -439 458 -51 53 -93 92 -93 87 0 -6 -4 -7 -10 -4 -17 10 -11 66 11 101 23
39 65 74 86 74 8 0 44 -28 80 -62z m4517 32 c63 -56 85 -133 42 -149 -43 -17
-616 -611 -644 -668 -20 -42 -49 -43 -88 -2 -24 26 -29 38 -29 82 0 42 6 61
31 97 38 53 274 315 435 483 113 117 114 118 147 108 19 -6 30 -6 27 0 -4 5
-12 9 -20 9 -26 0 -26 20 1 45 35 33 56 32 98 -5z m-4565 -402 c8 -11 9 -18 3
-18 -11 0 -112 117 -112 130 0 8 80 -74 109 -112z m4563 65 c-27 -37 -92 -99
-92 -87 0 13 101 126 107 120 3 -3 -4 -17 -15 -33z m-4469 -178 c18 -25 18
-26 -2 -53 -11 -15 -44 -51 -75 -81 -54 -54 -55 -54 -80 -37 -14 9 -26 24 -26
33 0 19 138 163 155 163 5 0 18 -12 28 -25z m4410 -54 c42 -43 77 -82 77 -86
0 -8 -42 -44 -52 -45 -11 0 -86 71 -124 117 -35 42 -35 43 -17 68 10 13 23 25
29 25 6 0 45 -35 87 -79z m-2045 59 c237 -18 459 -72 559 -136 64 -41 73 -57
73 -134 0 -74 -10 -80 -77 -50 -245 112 -751 159 -1118 104 -140 -21 -338 -68
-412 -98 -35 -15 -67 -26 -73 -26 -6 0 -10 31 -10 75 0 86 5 93 92 143 86 49
357 110 558 125 102 8 283 6 408 -3z m-1588 -65 c0 -29 -54 -91 -89 -103 -24
-8 -32 -7 -43 5 -11 13 -9 18 12 32 45 30 89 72 96 93 5 16 8 18 15 7 5 -8 9
-23 9 -34z m2834 -44 c30 -21 46 -39 46 -53 0 -18 -4 -20 -32 -14 -45 8 -108
76 -108 114 0 42 11 46 31 13 10 -16 38 -43 63 -60z m-3372 -129 c54 -54 98
-103 98 -110 0 -40 -160 40 -233 116 l-27 28 23 32 c12 17 26 32 31 32 6 0 54
-44 108 -98z m3932 -7 c-64 -55 -163 -115 -191 -115 -13 0 -23 3 -23 6 0 4 46
54 103 111 l102 104 28 -33 28 -33 -47 -40z m-4334 15 c24 -13 43 -47 31 -54
-12 -8 -61 32 -61 50 0 17 5 17 30 4z m4651 -8 c-16 -29 -39 -45 -57 -38 -14
5 -11 11 16 31 40 30 54 32 41 7z m-1971 -77 c199 -29 363 -85 445 -150 27
-23 30 -30 33 -100 5 -88 6 -88 -94 -47 -94 39 -258 81 -379 98 -152 22 -450
29 -595 15 -207 -20 -437 -73 -553 -126 -31 -14 -58 -25 -61 -25 -3 0 -6 35
-6 78 0 72 2 80 28 105 67 64 258 124 499 158 166 22 512 20 683 -6z m-1532
-112 c3 -42 3 -42 45 -45 37 -3 42 -6 42 -28 0 -22 -5 -25 -41 -28 -41 -3 -42
-3 -47 -48 -6 -53 -9 -58 -36 -49 -17 5 -21 15 -21 53 l0 47 -45 -3 c-44 -4
-45 -4 -45 27 0 30 1 31 45 31 l45 0 0 46 c0 44 1 45 28 42 24 -3 27 -8 30
-45z m2390 13 c12 -19 39 -44 61 -56 23 -11 41 -24 41 -29 0 -5 -19 -20 -42
-33 -28 -15 -50 -37 -61 -60 -10 -21 -22 -38 -26 -38 -4 0 -17 20 -28 43 -14
30 -33 49 -57 61 -44 21 -45 36 -3 56 17 8 43 32 56 53 13 20 28 37 32 37 4 0
16 -16 27 -34z m-814 -205 c127 -23 279 -69 336 -103 19 -12 50 -35 68 -52 30
-28 32 -34 32 -101 0 -40 -2 -74 -5 -77 -3 -3 -36 9 -73 28 -183 90 -520 142
-848 131 -270 -10 -544 -62 -685 -130 -38 -18 -72 -30 -75 -25 -12 19 -7 147
6 163 26 32 146 94 230 119 79 24 264 60 355 70 22 2 153 3 290 1 201 -2 273
-7 369 -24z m-104 -296 c184 -20 385 -74 362 -97 -48 -48 -529 -106 -767 -93
-232 13 -537 63 -568 94 -21 21 215 83 383 100 138 14 445 12 590 -4z"/>
<path d="M6394 7856 c-61 -27 -79 -82 -50 -151 23 -54 96 -81 149 -54 83 43
100 137 36 195 -25 22 -96 28 -135 10z"/>
<path d="M3882 7820 c-36 -22 -52 -54 -52 -105 0 -42 56 -95 101 -95 37 0 83
23 103 52 33 46 10 125 -44 153 -39 20 -69 19 -108 -5z m86 -93 c-4 -33 -52
-31 -56 2 -2 13 2 27 9 32 20 12 51 -9 47 -34z"/>
<path d="M3997 6594 c-4 -4 -7 -14 -7 -23 0 -11 3 -12 11 -4 6 6 10 16 7 23
-2 6 -7 8 -11 4z"/>
<path d="M4870 6056 c0 -30 13 -46 36 -46 32 0 43 29 19 46 -25 18 -55 18 -55
0z"/>
<path d="M6020 6895 c0 -2 10 -10 23 -16 20 -11 21 -11 8 4 -13 16 -31 23 -31
12z"/>
<path d="M6370 6593 c0 -5 5 -15 10 -23 8 -12 10 -11 10 8 0 12 -4 22 -10 22
-5 0 -10 -3 -10 -7z"/>
<path d="M5456 6048 c-7 -27 5 -41 30 -36 12 2 20 13 22 31 3 23 0 27 -21 27
-17 0 -26 -7 -31 -22z"/>
<path d="M4106 5676 c-22 -45 -34 -57 -71 -73 -25 -10 -45 -21 -45 -25 0 -3
20 -16 45 -28 35 -17 51 -33 71 -71 13 -27 26 -49 29 -49 3 0 12 17 20 37 21
50 43 72 88 90 38 15 49 33 22 33 -39 0 -77 33 -101 86 -13 30 -26 54 -28 54
-2 0 -16 -24 -30 -54z"/>
<path d="M6225 5714 c-18 -57 -43 -90 -88 -115 -47 -25 -52 -39 -14 -39 27 0
86 -62 93 -99 8 -39 20 -39 42 0 30 55 62 87 92 94 46 10 44 21 -8 46 -35 18
-53 35 -69 68 -30 59 -41 69 -48 45z"/>
<path d="M2968 5063 c7 -3 16 -2 19 1 4 3 -2 6 -13 5 -11 0 -14 -3 -6 -6z"/>
<path d="M6810 2655 l0 -97 143 7 c78 3 150 9 160 11 21 7 47 54 47 88 0 14
-11 38 -24 53 l-24 28 -151 3 -151 3 0 -96z"/>
<path d="M6810 2259 l0 -101 163 4 c110 3 171 9 190 18 29 14 57 56 57 85 0
29 -28 71 -55 83 -17 8 -84 12 -190 12 l-165 0 0 -101z"/>
<path d="M7756 1575 c-8 -21 1 -35 20 -35 10 0 14 8 12 22 -4 27 -23 34 -32
13z"/>
<path d="M2193 1622 c-30 -5 -33 -52 -4 -52 32 0 51 11 51 30 0 20 -15 27 -47
22z"/>
<path d="M2600 1595 c0 -21 5 -25 28 -25 36 0 56 14 49 34 -4 10 -19 16 -42
16 -31 0 -35 -3 -35 -25z"/>
<path d="M3042 1608 c-26 -26 -2 -108 32 -108 24 0 66 41 66 64 0 45 -67 75
-98 44z"/>
<path d="M4537 1613 c-4 -3 -7 -28 -7 -55 0 -46 1 -48 29 -48 36 0 61 23 61
55 0 13 -7 31 -16 39 -16 16 -55 22 -67 9z"/>
<path d="M5964 1594 c-36 -53 17 -105 76 -74 23 12 28 68 8 88 -21 21 -66 14
-84 -14z"/>
<path d="M6761 1578 c-11 -28 -6 -38 20 -38 19 0 24 15 13 44 -9 23 -23 20
-33 -6z"/>
<path d="M7323 1622 c-17 -2 -23 -10 -23 -28 0 -22 4 -25 33 -22 24 2 33 8 35
24 3 24 -11 32 -45 26z"/>
</g>
</svg>
